# xmcd
#
# Track frame offsets:
# 150
# 17109
# 42342
# 57373
# 87637
# 104764
# 127924
# 149793
# 171840
# 189187
# 219241
#
# Disc length: 3119 seconds
#
#
# Revision: 0
# Processed by: cddbd v1.5.1PL2 Copyright (c) Steve Scherf et al.
# Submitted via: FreeRIP 2.944 
#
DISCID=a10c2d0b
DTITLE=Magic Mike and The Wild Blues Yonder - Live@theUCOJazzLab
DYEAR=2006
DGENRE=Blues
TTITLE0=Twenty Four Hours Of Every Day
TTITLE1=I'll Play The Blues For You
TTITLE2=The Key To The Highway
TTITLE3=She's Only Nineteen Years Old
TTITLE4=Bendin' And Weepin' Like A Willow Tree
TTITLE5=The Thrill Is Gone
TTITLE6=Built For Comfort
TTITLE7=I'm Sittin' On Top Of The World
TTITLE8=Every Day I Have The Blues
TTITLE9=Five Long Years
TTITLE10=Hey Bo Diddley
EXTD=Recorded live May 25, 2006
EXTT0=
EXTT1=
EXTT2=
EXTT3=
EXTT4=
EXTT5=
EXTT6=
EXTT7=
EXTT8=
EXTT9=
EXTT10=
PLAYORDER=
